<?xml version="1.0" encoding="UTF-8" standalone="no"?>
<!DOCTYPE svg PUBLIC "-//W3C//DTD SVG 1.1//EN"
 "http://www.w3.org/Graphics/SVG/1.1/DTD/svg11.dtd">
<!-- Generated by graphviz version 2.38.0 (20140413.2041)
 -->
<!-- Title: controllers_diagram Pages: 1 -->
<svg width="381pt" height="341pt"
 viewBox="0.00 0.00 380.51 341.00" xmlns="http://www.w3.org/2000/svg" xmlns:xlink="http://www.w3.org/1999/xlink">
<g id="graph0" class="graph" transform="scale(1 1) rotate(0) translate(93.8208 232.5)">
<title>controllers_diagram</title>
<polygon fill="none" stroke="none" points="-93.8208,108.5 -93.8208,-232.5 286.688,-232.5 286.688,108.5 -93.8208,108.5"/>
<!-- _diagram_info -->
<g id="node1" class="node"><title>_diagram_info</title>
<text text-anchor="start" x="83.3123" y="15.9" font-family="Times,serif" font-size="13.00">Controllers diagram</text>
<text text-anchor="start" x="83.3123" y="28.9" font-family="Times,serif" font-size="13.00">Date: Sep 20 2015 &#45; 14:34</text>
<text text-anchor="start" x="83.3123" y="41.9" font-family="Times,serif" font-size="13.00">Migration version: 20150915182450</text>
<text text-anchor="start" x="83.3123" y="54.9" font-family="Times,serif" font-size="13.00">Generated by RailRoady 1.3.1</text>
<text text-anchor="start" x="83.3123" y="67.9" font-family="Times,serif" font-size="13.00">http://railroady.prestonlee.com</text>
</g>
<!-- ApplicationController -->
<g id="node2" class="node"><title>ApplicationController</title>
<path fill="none" stroke="black" d="M-77.8208,-136C-77.8208,-136 37.8208,-136 37.8208,-136 43.8208,-136 49.8208,-142 49.8208,-148 49.8208,-148 49.8208,-216 49.8208,-216 49.8208,-222 43.8208,-228 37.8208,-228 37.8208,-228 -77.8208,-228 -77.8208,-228 -83.8208,-228 -89.8208,-222 -89.8208,-216 -89.8208,-216 -89.8208,-148 -89.8208,-148 -89.8208,-142 -83.8208,-136 -77.8208,-136"/>
<text text-anchor="middle" x="-20" y="-212.8" font-family="Times,serif" font-size="14.00">ApplicationController</text>
<polyline fill="none" stroke="black" points="-89.8208,-206 49.8208,-206 "/>
<polyline fill="none" stroke="black" points="-89.8208,-182 49.8208,-182 "/>
<polyline fill="none" stroke="black" points="-89.8208,-158 49.8208,-158 "/>
<text text-anchor="start" x="-81.8208" y="-142.8" font-family="Times,serif" font-size="14.00">_layout</text>
</g>
<!-- CommentsController -->
<g id="node3" class="node"><title>CommentsController</title>
<path fill="none" stroke="black" d="M86.8931,-31C86.8931,-31 197.107,-31 197.107,-31 203.107,-31 209.107,-37 209.107,-43 209.107,-43 209.107,-123 209.107,-123 209.107,-129 203.107,-135 197.107,-135 197.107,-135 86.8931,-135 86.8931,-135 80.8931,-135 74.8931,-129 74.8931,-123 74.8931,-123 74.8931,-43 74.8931,-43 74.8931,-37 80.8931,-31 86.8931,-31"/>
<text text-anchor="middle" x="142" y="-119.8" font-family="Times,serif" font-size="14.00">CommentsController</text>
<polyline fill="none" stroke="black" points="74.8931,-113 209.107,-113 "/>
<text text-anchor="start" x="82.8931" y="-97.8" font-family="Times,serif" font-size="14.00">create</text>
<polyline fill="none" stroke="black" points="74.8931,-91 209.107,-91 "/>
<polyline fill="none" stroke="black" points="74.8931,-67 209.107,-67 "/>
<text text-anchor="start" x="82.8931" y="-51.8" font-family="Times,serif" font-size="14.00">_layout</text>
<text text-anchor="start" x="82.8931" y="-37.8" font-family="Times,serif" font-size="14.00">comment_params</text>
</g>
<!-- PostsController -->
<g id="node4" class="node"><title>PostsController</title>
<path fill="none" stroke="black" d="M-47.5586,104C-47.5586,104 31.5586,104 31.5586,104 37.5586,104 43.5586,98 43.5586,92 43.5586,92 43.5586,-86 43.5586,-86 43.5586,-92 37.5586,-98 31.5586,-98 31.5586,-98 -47.5586,-98 -47.5586,-98 -53.5586,-98 -59.5586,-92 -59.5586,-86 -59.5586,-86 -59.5586,92 -59.5586,92 -59.5586,98 -53.5586,104 -47.5586,104"/>
<text text-anchor="middle" x="-8" y="-82.8" font-family="Times,serif" font-size="14.00">PostsController</text>
<polyline fill="none" stroke="black" points="-59.5586,-76 43.5586,-76 "/>
<text text-anchor="start" x="-51.5586" y="-60.8" font-family="Times,serif" font-size="14.00">create</text>
<text text-anchor="start" x="-51.5586" y="-46.8" font-family="Times,serif" font-size="14.00">destroy</text>
<text text-anchor="start" x="-51.5586" y="-32.8" font-family="Times,serif" font-size="14.00">edit</text>
<text text-anchor="start" x="-51.5586" y="-18.8" font-family="Times,serif" font-size="14.00">index</text>
<text text-anchor="start" x="-51.5586" y="-4.8" font-family="Times,serif" font-size="14.00">new</text>
<text text-anchor="start" x="-51.5586" y="9.2" font-family="Times,serif" font-size="14.00">show</text>
<text text-anchor="start" x="-51.5586" y="23.2" font-family="Times,serif" font-size="14.00">update</text>
<polyline fill="none" stroke="black" points="-59.5586,30 43.5586,30 "/>
<polyline fill="none" stroke="black" points="-59.5586,54 43.5586,54 "/>
<text text-anchor="start" x="-51.5586" y="69.2" font-family="Times,serif" font-size="14.00">_layout</text>
<text text-anchor="start" x="-51.5586" y="83.2" font-family="Times,serif" font-size="14.00">post_params</text>
<text text-anchor="start" x="-51.5586" y="97.2" font-family="Times,serif" font-size="14.00">set_post</text>
</g>
</g>
</svg>
