<?xml version="1.0" encoding="UTF-8" standalone="no"?>
<!DOCTYPE svg PUBLIC "-//W3C//DTD SVG 1.1//EN"
 "http://www.w3.org/Graphics/SVG/1.1/DTD/svg11.dtd">
<!-- Generated by graphviz version 2.38.0 (20140413.2041)
 -->
<!-- Title: models_diagram Pages: 1 -->
<svg width="366pt" height="195pt"
 viewBox="0.00 0.00 366.19 195.00" xmlns="http://www.w3.org/2000/svg" xmlns:xlink="http://www.w3.org/1999/xlink">
<g id="graph0" class="graph" transform="scale(1 1) rotate(0) translate(4 191)">
<title>models_diagram</title>
<polygon fill="none" stroke="none" points="-4,4 -4,-191 362.193,-191 362.193,4 -4,4"/>
<!-- _diagram_info -->
<g id="node1" class="node"><title>_diagram_info</title>
<text text-anchor="start" x="8" y="-151.6" font-family="Times,serif" font-size="13.00">Models diagram</text>
<text text-anchor="start" x="8" y="-138.6" font-family="Times,serif" font-size="13.00">Date: Sep 20 2015 &#45; 14:34</text>
<text text-anchor="start" x="8" y="-125.6" font-family="Times,serif" font-size="13.00">Migration version: 20150915182450</text>
<text text-anchor="start" x="8" y="-112.6" font-family="Times,serif" font-size="13.00">Generated by RailRoady 1.3.1</text>
<text text-anchor="start" x="8" y="-99.6" font-family="Times,serif" font-size="13.00">http://railroady.prestonlee.com</text>
</g>
<!-- Post -->
<g id="node2" class="node"><title>Post</title>
<path fill="none" stroke="black" d="M237.182,-72.5C237.182,-72.5 346.193,-72.5 346.193,-72.5 352.193,-72.5 358.193,-78.5 358.193,-84.5 358.193,-84.5 358.193,-174.5 358.193,-174.5 358.193,-180.5 352.193,-186.5 346.193,-186.5 346.193,-186.5 237.182,-186.5 237.182,-186.5 231.182,-186.5 225.182,-180.5 225.182,-174.5 225.182,-174.5 225.182,-84.5 225.182,-84.5 225.182,-78.5 231.182,-72.5 237.182,-72.5"/>
<text text-anchor="middle" x="291.688" y="-171.3" font-family="Times,serif" font-size="14.00">Post</text>
<polyline fill="none" stroke="black" points="225.182,-164.5 358.193,-164.5 "/>
<text text-anchor="start" x="233.182" y="-149.3" font-family="Times,serif" font-size="14.00">id :integer</text>
<text text-anchor="start" x="233.182" y="-135.3" font-family="Times,serif" font-size="14.00">title :string</text>
<text text-anchor="start" x="233.182" y="-121.3" font-family="Times,serif" font-size="14.00">body :text</text>
<text text-anchor="start" x="233.182" y="-107.3" font-family="Times,serif" font-size="14.00">created_at :datetime</text>
<text text-anchor="start" x="233.182" y="-93.3" font-family="Times,serif" font-size="14.00">updated_at :datetime</text>
<text text-anchor="start" x="233.182" y="-79.3" font-family="Times,serif" font-size="14.00">author :string</text>
</g>
<!-- Comment -->
<g id="node3" class="node"><title>Comment</title>
<ellipse fill="none" stroke="black" cx="291.688" cy="-18" rx="44.9768" ry="18"/>
<text text-anchor="middle" x="291.688" y="-13.8" font-family="Times,serif" font-size="14.00">Comment</text>
</g>
<!-- Post&#45;&gt;Comment -->
<g id="edge1" class="edge"><title>Post&#45;&gt;Comment</title>
<path fill="none" stroke="#c9cb18" d="M291.688,-64.4252C291.688,-58.0684 291.688,-51.8845 291.688,-46.2298"/>
<ellipse fill="none" stroke="#c9cb18" cx="291.688" cy="-68.4669" rx="4" ry="4"/>
<polygon fill="#c9cb18" stroke="#c9cb18" points="291.688,-46.1019 296.188,-36.1018 291.688,-41.1019 291.688,-36.1019 291.688,-36.1019 291.688,-36.1019 291.688,-41.1019 287.188,-36.1019 291.688,-46.1019 291.688,-46.1019"/>
</g>
</g>
</svg>
